<svg id="svg" xmlns="http://www.w3.org/2000/svg" xmlns:xlink="http://www.w3.org/1999/xlink" width="400" height="400" viewBox="0, 0, 400,400"><g id="svgg"><path id="path0" d="M177.344 26.273 C 130.053 32.688,87.826 57.545,59.606 95.579 C 52.669 104.929,43.457 120.373,44.351 121.154 C 45.132 121.837,90.185 139.071,91.080 139.030 C 91.474 139.012,94.082 135.441,96.875 131.095 C 144.147 57.532,254.360 57.618,303.677 131.256 C 311.679 143.205,321.875 167.458,321.875 174.544 C 321.875 174.795,315.051 175.000,306.710 175.000 L 291.545 175.000 289.523 177.404 C 284.957 182.829,284.679 182.435,314.453 212.702 C 346.994 245.783,340.595 245.942,375.195 211.187 C 402.756 183.504,402.398 184.021,398.446 177.539 L 396.898 175.000 385.168 175.000 C 378.716 175.000,373.436 174.912,373.435 174.805 C 373.434 174.697,372.725 170.965,371.860 166.511 C 354.270 75.911,268.306 13.935,177.344 26.273 M52.644 175.066 C 47.831 176.461,0.000 226.639,-0.000 230.292 C -0.000 236.402,2.414 237.500,15.848 237.500 L 27.314 237.500 27.803 239.648 C 36.829 279.303,57.518 311.889,89.462 336.763 C 170.642 399.976,285.472 383.321,343.945 299.851 C 347.275 295.097,349.994 290.813,349.986 290.331 C 349.975 289.579,307.927 272.487,303.516 271.441 C 302.313 271.156,301.234 272.092,298.828 275.508 C 271.005 315.017,213.272 333.705,164.266 319.065 C 127.454 308.068,96.430 278.785,83.317 242.660 L 81.444 237.500 95.346 237.500 L 109.248 237.500 110.874 234.869 C 114.869 228.404,115.322 229.055,87.305 200.988 C 59.562 173.196,59.431 173.097,52.644 175.066 " stroke="none" fill="#000000" fill-rule="evenodd"></path></g></svg>